<?xml version="1.0" encoding="UTF-8"?>
<!DOCTYPE svg PUBLIC "-//W3C//DTD SVG 1.1//EN" "http://www.w3.org/Graphics/SVG/1.1/DTD/svg11.dtd">
<svg xmlns="http://www.w3.org/2000/svg" version="1.1" width="1000px" height="1000px" style="shape-rendering:geometricPrecision; text-rendering:geometricPrecision; image-rendering:optimizeQuality; fill-rule:evenodd; clip-rule:evenodd" xmlns:xlink="http://www.w3.org/1999/xlink">
<g><path style="opacity:0.992" fill="#8500fe" d="M 669.5,342.5 C 681.73,381.525 694.73,420.192 708.5,458.5C 733.364,533.093 758.031,607.76 782.5,682.5C 740.174,681.617 697.84,681.284 655.5,681.5C 638.837,631.178 622.171,580.845 605.5,530.5C 592.534,490.6 579.2,450.933 565.5,411.5C 544.761,349.618 524.428,287.618 504.5,225.5C 546.17,225.251 587.836,225.084 629.5,225C 643.133,264.067 656.467,303.233 669.5,342.5 Z"/></g>
<g><path style="opacity:0.982" fill="#000000" d="M 565.5,411.5 C 579.2,450.933 592.534,490.6 605.5,530.5C 565.136,567.208 524.469,603.708 483.5,640C 476.167,645.333 468.833,650.667 461.5,656C 452.618,660.275 443.618,664.275 434.5,668C 434.833,668.333 435.167,668.667 435.5,669C 348.113,697.26 268.113,683.926 195.5,629C 133.18,574.401 106.68,506.235 116,424.5C 122.876,377.495 142.21,336.495 174,301.5C 230.184,245.368 297.517,220.701 376,227.5C 376.873,227.265 377.707,226.931 378.5,226.5C 427.543,234.198 471.21,253.532 509.5,284.5C 488.802,314.587 467.635,344.253 446,373.5C 424.484,357.077 400.484,345.744 374,339.5C 373.586,339.957 373.086,340.291 372.5,340.5C 339.18,335.675 308.847,342.842 281.5,362C 244.757,390.529 229.257,428.029 235,474.5C 241.749,508.399 259.916,534.899 289.5,554C 338.421,579.982 385.421,576.982 430.5,545C 438.865,537.963 447.198,530.963 455.5,524C 493.094,487.241 529.761,449.741 565.5,411.5 Z"/></g>
<g><path style="opacity:0.975" fill="#000000" d="M 708.5,458.5 C 694.73,420.192 681.73,381.525 669.5,342.5C 697.796,313.201 725.962,283.534 754,253.5C 759.658,255.835 765.324,257.168 771,257.5C 804.433,266.23 838.267,274.396 872.5,282C 873.253,283.487 874.086,283.654 875,282.5C 878.212,283.174 881.045,284.508 883.5,286.5C 825.092,343.909 766.759,401.242 708.5,458.5 Z"/></g>
<g><path style="opacity:0.953" fill="#8600ff" d="M 293.5,689.5 C 308.846,687.286 322.18,691.286 333.5,701.5C 329.156,706.873 324.823,712.206 320.5,717.5C 310.705,708.564 300.372,707.731 289.5,715C 281.654,723.633 280.487,733.133 286,743.5C 297.139,755.157 308.639,755.491 320.5,744.5C 324.993,749.832 329.327,755.332 333.5,761C 319.619,772.761 303.952,775.761 286.5,770C 263.861,758.884 255.694,741.051 262,716.5C 268.128,702.192 278.628,693.192 293.5,689.5 Z"/></g>
<g><path style="opacity:0.96" fill="#000000" d="M 452.5,689.5 C 470.449,686.438 485.615,691.438 498,704.5C 506.012,715.223 508.679,727.223 506,740.5C 499.684,761.834 485.35,772.501 463,772.5C 442.557,772.709 428.557,763.375 421,744.5C 415.357,716.695 425.857,698.362 452.5,689.5 Z M 461.5,709.5 C 479.727,711.63 486.893,721.63 483,739.5C 475.956,750.959 466.122,754.459 453.5,750C 442.538,743.791 439.038,734.625 443,722.5C 447.143,715.177 453.309,710.844 461.5,709.5 Z"/></g>
<g><path style="opacity:0.96" fill="#000000" d="M 604.5,689.5 C 622.449,686.438 637.615,691.438 650,704.5C 658.012,715.223 660.679,727.223 658,740.5C 651.684,761.834 637.35,772.501 615,772.5C 594.557,772.709 580.557,763.375 573,744.5C 567.357,716.695 577.857,698.362 604.5,689.5 Z M 613.5,709.5 C 631.727,711.63 638.893,721.63 635,739.5C 627.956,750.959 618.122,754.459 605.5,750C 594.538,743.791 591.038,734.625 595,722.5C 599.143,715.177 605.309,710.844 613.5,709.5 Z"/></g>
<g><path style="opacity:0.956" fill="#000000" d="M 698.5,689.5 C 713.144,687.243 726.144,690.743 737.5,700C 733.327,705.668 728.993,711.168 724.5,716.5C 711.655,706.21 700.155,707.543 690,720.5C 683.976,738.784 690.476,749.45 709.5,752.5C 718.065,753.237 723.399,749.57 725.5,741.5C 719.833,741.5 714.167,741.5 708.5,741.5C 708.5,736.167 708.5,730.833 708.5,725.5C 722.167,725.5 735.833,725.5 749.5,725.5C 751.691,754.801 738.191,770.801 709,773.5C 676.9,770.08 662.567,752.413 666,720.5C 671.193,704.138 682.026,693.805 698.5,689.5 Z"/></g>
<g><path style="opacity:0.953" fill="#000000" d="M 824.5,689.5 C 839.846,687.286 853.18,691.286 864.5,701.5C 860.156,706.873 855.823,712.206 851.5,717.5C 841.705,708.564 831.372,707.731 820.5,715C 812.654,723.633 811.487,733.133 817,743.5C 828.139,755.157 839.639,755.491 851.5,744.5C 855.993,749.832 860.327,755.332 864.5,761C 850.619,772.761 834.952,775.761 817.5,770C 794.861,758.884 786.694,741.051 793,716.5C 799.128,702.192 809.628,693.192 824.5,689.5 Z"/></g>
<g><path style="opacity:0.984" fill="#000000" d="M 341.5,690.5 C 344.187,690.336 346.854,690.503 349.5,691C 362.43,703.385 375.263,715.885 388,728.5C 388.5,716.171 388.667,703.838 388.5,691.5C 395.5,691.5 402.5,691.5 409.5,691.5C 409.5,718.167 409.5,744.833 409.5,771.5C 406.813,771.664 404.146,771.497 401.5,771C 388.362,758.863 375.529,746.363 363,733.5C 362.5,745.829 362.333,758.162 362.5,770.5C 355.5,770.5 348.5,770.5 341.5,770.5C 341.5,743.833 341.5,717.167 341.5,690.5 Z"/></g>
<g><path style="opacity:0.996" fill="#8600ff" d="M 133.5,691.5 C 153.167,691.5 172.833,691.5 192.5,691.5C 192.5,698.167 192.5,704.833 192.5,711.5C 186.167,711.5 179.833,711.5 173.5,711.5C 173.5,731.167 173.5,750.833 173.5,770.5C 166.5,770.5 159.5,770.5 152.5,770.5C 152.5,750.833 152.5,731.167 152.5,711.5C 146.167,711.5 139.833,711.5 133.5,711.5C 133.5,704.833 133.5,698.167 133.5,691.5 Z"/></g>
<g><path style="opacity:0.974" fill="#8600ff" d="M 201.5,691.5 C 218.833,691.5 236.167,691.5 253.5,691.5C 253.5,698.167 253.5,704.833 253.5,711.5C 243.167,711.5 232.833,711.5 222.5,711.5C 222.5,714.833 222.5,718.167 222.5,721.5C 230.833,721.5 239.167,721.5 247.5,721.5C 247.5,727.5 247.5,733.5 247.5,739.5C 239.167,739.5 230.833,739.5 222.5,739.5C 222.5,743.167 222.5,746.833 222.5,750.5C 232.833,750.5 243.167,750.5 253.5,750.5C 253.5,757.167 253.5,763.833 253.5,770.5C 236.167,770.5 218.833,770.5 201.5,770.5C 201.5,744.167 201.5,717.833 201.5,691.5 Z"/></g>
<g><path style="opacity:0.986" fill="#000000" d="M 516.5,691.5 C 523.5,691.5 530.5,691.5 537.5,691.5C 537.5,711.167 537.5,730.833 537.5,750.5C 547.833,750.5 558.167,750.5 568.5,750.5C 568.5,757.167 568.5,763.833 568.5,770.5C 551.167,770.5 533.833,770.5 516.5,770.5C 516.5,744.167 516.5,717.833 516.5,691.5 Z"/></g>
<g><path style="opacity:1" fill="#000000" d="M 759.5,691.5 C 766.5,691.5 773.5,691.5 780.5,691.5C 780.5,717.833 780.5,744.167 780.5,770.5C 773.5,770.5 766.5,770.5 759.5,770.5C 759.5,744.167 759.5,717.833 759.5,691.5 Z"/></g>
</svg>
